<svg xmlns="http://www.w3.org/2000/svg" xmlns:xlink="http://www.w3.org/1999/xlink" width="128" zoomAndPan="magnify" viewBox="0 0 96 95.999999" height="128" preserveAspectRatio="xMidYMid meet" version="1.0"><defs><clipPath id="bbb3257811"><path d="M 48 0 C 21.492188 0 0 21.492188 0 48 C 0 74.507812 21.492188 96 48 96 C 74.507812 96 96 74.507812 96 48 C 96 21.492188 74.507812 0 48 0 Z M 48 0 " clip-rule="nonzero"/></clipPath><clipPath id="8c5613a5b7"><path d="M 11 64 L 23 64 L 23 76.683594 L 11 76.683594 Z M 11 64 " clip-rule="nonzero"/></clipPath><clipPath id="667777f0bc"><path d="M 73 64 L 85 64 L 85 76.683594 L 73 76.683594 Z M 73 64 " clip-rule="nonzero"/></clipPath><clipPath id="df4c5b785d"><path d="M 9.601562 19.683594 L 86.101562 19.683594 L 86.101562 72 L 9.601562 72 Z M 9.601562 19.683594 " clip-rule="nonzero"/></clipPath></defs><g clip-path="url(#bbb3257811)"><rect x="-9.6" width="115.2" fill="#2b2b2b" y="-9.6" height="115.199999" fill-opacity="1"/></g><g clip-path="url(#8c5613a5b7)"><path fill="#ffffff" d="M 12.136719 68.0625 L 11.648438 64.488281 L 11.648438 74.660156 C 11.648438 75.570312 12.386719 76.308594 13.296875 76.308594 L 20.453125 76.308594 C 21.363281 76.308594 22.101562 75.570312 22.101562 74.660156 L 22.101562 72.9375 L 17.722656 72.9375 C 14.964844 72.9375 12.511719 70.796875 12.136719 68.0625 " fill-opacity="1" fill-rule="nonzero"/></g><g clip-path="url(#667777f0bc)"><path fill="#ffffff" d="M 78.273438 72.9375 L 73.894531 72.9375 L 73.894531 74.660156 C 73.894531 75.570312 74.632812 76.308594 75.546875 76.308594 L 82.703125 76.308594 C 83.613281 76.308594 84.351562 75.570312 84.351562 74.660156 L 84.351562 64.484375 L 83.859375 68.0625 C 83.484375 70.796875 81.03125 72.9375 78.273438 72.9375 " fill-opacity="1" fill-rule="nonzero"/></g><path fill="#ffffff" d="M 37.300781 56.394531 L 58.699219 56.394531 L 59.230469 54.054688 L 36.769531 54.054688 L 37.300781 56.394531 " fill-opacity="1" fill-rule="nonzero"/><path fill="#ffffff" d="M 37.742188 58.339844 C 37.984375 59.410156 39.117188 60.316406 40.21875 60.316406 L 55.78125 60.316406 C 56.878906 60.316406 58.011719 59.410156 58.257812 58.339844 L 58.324219 58.046875 L 37.675781 58.046875 L 37.742188 58.339844 " fill-opacity="1" fill-rule="nonzero"/><path fill="#ffffff" d="M 58.464844 50.136719 L 37.53125 50.136719 C 37.074219 50.136719 36.691406 50.300781 36.453125 50.59375 C 36.21875 50.890625 36.144531 51.300781 36.246094 51.746094 L 36.394531 52.40625 L 59.605469 52.40625 L 59.753906 51.746094 C 59.855469 51.300781 59.78125 50.890625 59.542969 50.59375 C 59.308594 50.300781 58.925781 50.136719 58.464844 50.136719 " fill-opacity="1" fill-rule="nonzero"/><g clip-path="url(#df4c5b785d)"><path fill="#ffffff" d="M 70.929688 61.316406 C 67.660156 61.316406 65.011719 58.667969 65.011719 55.402344 C 65.011719 52.132812 67.660156 49.488281 70.929688 49.488281 C 74.195312 49.488281 76.84375 52.132812 76.84375 55.402344 C 76.84375 58.667969 74.195312 61.316406 70.929688 61.316406 Z M 61.363281 52.113281 L 59.867188 58.703125 C 59.449219 60.535156 57.65625 61.964844 55.78125 61.964844 L 40.21875 61.964844 C 38.34375 61.964844 36.546875 60.535156 36.132812 58.703125 L 34.636719 52.113281 C 34.425781 51.179688 34.617188 50.25 35.164062 49.566406 C 35.710938 48.878906 36.574219 48.484375 37.53125 48.484375 L 58.464844 48.484375 C 59.421875 48.484375 60.285156 48.878906 60.835938 49.566406 C 61.382812 50.25 61.574219 51.179688 61.363281 52.113281 Z M 59.453125 68.746094 C 59.453125 69.65625 58.714844 70.394531 57.800781 70.394531 L 38.195312 70.394531 C 37.285156 70.394531 36.546875 69.65625 36.546875 68.746094 L 36.546875 65.183594 C 36.546875 64.269531 37.285156 63.53125 38.195312 63.53125 L 57.800781 63.53125 C 58.714844 63.53125 59.453125 64.269531 59.453125 65.183594 Z M 25.070312 61.316406 C 21.800781 61.316406 19.152344 58.667969 19.152344 55.402344 C 19.152344 52.132812 21.800781 49.488281 25.070312 49.488281 C 28.335938 49.488281 30.984375 52.132812 30.984375 55.402344 C 30.984375 58.667969 28.335938 61.316406 25.070312 61.316406 Z M 27.699219 24.238281 C 27.898438 23.765625 28.808594 23.164062 29.320312 23.164062 L 66.675781 23.164062 C 67.191406 23.164062 68.101562 23.765625 68.296875 24.242188 L 75.195312 40.613281 L 20.804688 40.617188 Z M 86.230469 36.894531 C 86.125 35.992188 85.304688 35.335938 84.402344 35.441406 L 78.796875 36.078125 C 78.183594 36.148438 77.710938 36.5625 77.484375 37.09375 L 71.503906 22.890625 C 70.761719 21.128906 68.589844 19.6875 66.675781 19.6875 L 29.320312 19.6875 C 27.410156 19.6875 25.238281 21.128906 24.496094 22.890625 L 18.511719 37.09375 C 18.289062 36.5625 17.8125 36.148438 17.199219 36.078125 L 11.59375 35.441406 C 10.695312 35.335938 9.871094 35.992188 9.769531 36.894531 L 9.710938 37.414062 C 9.605469 38.316406 10.230469 39.277344 11.097656 39.542969 L 16.464844 41.222656 C 15.597656 42.433594 14.484375 43.589844 13.507812 44.207031 C 12 45.164062 10.980469 47.496094 11.242188 49.390625 L 13.773438 67.839844 C 14.03125 69.738281 15.808594 71.285156 17.722656 71.285156 L 78.273438 71.285156 C 80.1875 71.285156 81.964844 69.738281 82.226562 67.839844 L 84.757812 49.390625 C 85.015625 47.496094 83.996094 45.164062 82.488281 44.207031 C 81.511719 43.589844 80.402344 42.433594 79.53125 41.222656 L 84.898438 39.542969 C 85.765625 39.277344 86.390625 38.316406 86.289062 37.414062 L 86.230469 36.894531 " fill-opacity="1" fill-rule="nonzero"/></g></svg>